<svg width="25" height="25" viewBox="0 0 25 25" fill="none" xmlns="http://www.w3.org/2000/svg">
  <path
    d="M12.4191 10.8652C12.0091 10.8652 11.6691 10.5252 11.6691 10.1152V6.78516C11.6691 6.37516 12.0091 6.03516 12.4191 6.03516C12.8291 6.03516 13.1691 6.37516 13.1691 6.78516V10.1152C13.1691 10.5352 12.8291 10.8652 12.4191 10.8652Z"
    fill="currentColor" />
  <path
    d="M12.4391 20.6959C9.85906 20.6959 7.28906 20.2859 4.83906 19.4659C3.92906 19.1659 3.23906 18.5159 2.93906 17.6959C2.63906 16.8759 2.73906 15.9359 3.22906 15.1159L4.49906 12.9959C4.77906 12.5259 5.02906 11.6459 5.02906 11.0959V8.99594C5.02906 4.90594 8.34906 1.58594 12.4391 1.58594C16.5291 1.58594 19.8491 4.90594 19.8491 8.99594V11.0959C19.8491 11.6359 20.0991 12.5259 20.3791 12.9959L21.6491 15.1159C22.1191 15.8959 22.1991 16.8259 21.8891 17.6759C21.5791 18.5259 20.8991 19.1759 20.0391 19.4659C17.5891 20.2959 15.0191 20.6959 12.4391 20.6959ZM12.4391 3.09594C9.17906 3.09594 6.52906 5.74594 6.52906 9.00594V11.1059C6.52906 11.9159 6.20906 13.0859 5.78906 13.7759L4.51906 15.9059C4.25906 16.3359 4.19906 16.7959 4.34906 17.1959C4.49906 17.5959 4.83906 17.8959 5.31906 18.0559C9.91906 19.5859 14.9791 19.5859 19.5791 18.0559C20.0091 17.9159 20.3391 17.5959 20.4891 17.1759C20.6491 16.7559 20.5991 16.2959 20.3691 15.9059L19.0991 13.7859C18.6791 13.0959 18.3591 11.9259 18.3591 11.1159V9.01594C18.3491 5.74594 15.6991 3.09594 12.4391 3.09594Z"
    fill="currentColor" />
  <path
    d="M12.4191 23.246C11.3491 23.246 10.2991 22.806 9.53905 22.046C8.77905 21.286 8.33905 20.236 8.33905 19.166H9.83905C9.83905 19.846 10.1191 20.506 10.5991 20.986C11.0791 21.466 11.7391 21.746 12.4191 21.746C13.8391 21.746 14.9991 20.586 14.9991 19.166H16.4991C16.4991 21.416 14.6691 23.246 12.4191 23.246Z"
    fill="currentColor" />
</svg>